<?xml version="1.0" standalone="no"?>
<!DOCTYPE svg PUBLIC "-//W3C//DTD SVG 20010904//EN"
 "http://www.w3.org/TR/2001/REC-SVG-20010904/DTD/svg10.dtd">
<svg version="1.0" xmlns="http://www.w3.org/2000/svg"
 width="579.000000pt" height="329.000000pt" viewBox="0 0 579.000000 329.000000"
 preserveAspectRatio="xMidYMid meet">
<metadata>
Created by potrace 1.16, written by Peter Selinger 2001-2019
</metadata>
<g transform="translate(0.000000,329.000000) scale(0.100000,-0.100000)"
fill="#ffffff" stroke="none">
<path d="M1868 3206 c-31 -35 -54 -75 -68 -117 -12 -35 -32 -80 -45 -99 -16
-24 -22 -44 -18 -61 3 -15 0 -30 -6 -33 -6 -4 -11 -18 -11 -30 0 -13 -7 -29
-15 -36 -8 -7 -15 -21 -15 -32 0 -11 -18 -47 -40 -80 -22 -33 -40 -64 -40 -68
0 -4 -11 -24 -25 -44 -14 -21 -23 -42 -20 -47 4 -5 -3 -22 -14 -38 -12 -16
-21 -33 -21 -38 0 -6 -9 -18 -20 -28 -11 -10 -20 -28 -20 -40 0 -12 -9 -30
-19 -39 -11 -10 -22 -29 -26 -43 -3 -15 -15 -38 -26 -51 -10 -14 -19 -35 -19
-48 0 -26 -7 -41 -57 -121 -18 -28 -33 -64 -33 -80 0 -16 -7 -38 -15 -49 -8
-10 -15 -27 -15 -36 0 -10 -7 -18 -15 -18 -14 0 -35 -56 -35 -98 0 -12 -7 -25
-15 -28 -8 -4 -15 -18 -15 -33 0 -14 -10 -46 -22 -71 -56 -118 -78 -169 -88
-210 -17 -63 -48 -127 -65 -134 -8 -3 -15 -12 -15 -20 0 -8 -19 -57 -41 -108
-57 -127 -56 -125 -75 -193 -23 -82 -55 -167 -71 -186 -7 -8 -13 -20 -13 -26
0 -5 -11 -31 -25 -57 -14 -26 -25 -53 -25 -59 0 -7 -22 -49 -50 -94 -27 -45
-50 -88 -50 -97 0 -8 -4 -18 -10 -21 -5 -3 -10 -15 -10 -27 0 -11 -8 -33 -17
-49 -15 -25 -16 -31 -4 -38 20 -13 36 -4 50 25 8 17 17 24 29 20 14 -4 23 9
46 67 16 39 34 79 41 87 6 8 26 53 44 100 19 47 49 108 67 136 19 28 34 61 34
73 0 12 8 39 19 59 34 67 59 126 72 167 6 22 20 56 30 75 11 19 19 38 19 42 0
14 50 116 63 130 7 7 20 27 29 43 8 17 22 44 30 60 9 17 22 48 28 69 13 39 19
49 53 87 15 17 21 18 34 7 25 -20 58 -77 87 -150 22 -56 25 -74 17 -108 -8
-37 -7 -41 15 -46 31 -8 54 1 54 20 0 24 48 126 59 126 5 0 15 16 21 35 14 42
43 65 85 66 16 0 44 9 60 20 17 10 39 23 50 28 11 5 55 44 99 85 43 42 82 76
87 76 17 0 18 -19 4 -46 -8 -16 -15 -40 -15 -54 0 -14 -11 -56 -25 -95 -13
-38 -25 -80 -25 -92 0 -12 -4 -25 -10 -28 -5 -3 -10 -15 -10 -26 0 -14 7 -19
27 -19 30 0 103 30 103 42 0 4 5 8 12 8 13 0 90 51 85 56 -2 2 -18 -2 -36 -9
-30 -11 -34 -10 -52 13 -16 21 -20 23 -29 10 -7 -11 -12 -12 -20 -4 -8 8 -7
21 4 49 9 21 16 48 16 61 0 12 5 26 10 29 6 3 10 21 10 40 0 19 10 50 22 70
11 20 25 53 29 73 19 90 35 130 68 172 20 25 39 47 44 48 4 2 7 9 7 16 0 6 29
40 64 75 42 42 67 76 75 102 6 21 16 57 23 79 8 30 8 46 0 65 -7 14 -12 37
-12 51 0 41 -18 64 -50 64 -40 0 -61 -24 -53 -60 4 -23 2 -30 -9 -30 -10 0
-17 -14 -21 -40 -3 -22 -17 -54 -31 -71 -14 -17 -26 -38 -26 -46 0 -9 -8 -34
-19 -57 -10 -23 -29 -72 -41 -111 -12 -38 -28 -77 -35 -85 -8 -8 -17 -28 -21
-45 -8 -33 -38 -91 -60 -116 -8 -8 -14 -20 -14 -26 0 -26 -77 -103 -183 -183
-64 -49 -86 -60 -111 -58 -27 3 -31 7 -34 34 -2 17 11 73 28 125 21 61 37 138
46 219 8 69 19 152 24 185 5 33 16 114 24 180 8 66 24 174 36 240 11 66 24
151 27 190 4 47 16 90 35 130 34 70 70 138 84 157 17 22 56 153 52 174 -7 38
-41 27 -90 -30z m-214 -791 c3 -8 -3 -54 -13 -102 -10 -49 -22 -131 -26 -183
-4 -52 -14 -133 -22 -180 -8 -47 -21 -119 -29 -160 -26 -148 -31 -155 -90
-126 -19 9 -48 16 -65 16 -36 0 -89 34 -89 57 0 9 13 37 28 62 16 25 39 73 51
106 12 33 34 80 48 105 13 25 34 67 44 94 11 27 29 62 40 77 10 15 19 35 19
44 0 9 11 36 25 61 14 25 25 59 25 76 0 29 23 68 40 68 5 0 10 -7 14 -15z"/>
<path d="M5015 2380 c-12 -4 -27 -15 -34 -24 -7 -9 -19 -16 -26 -16 -7 0 -55
-45 -107 -100 -107 -115 -117 -118 -215 -74 -78 36 -147 37 -193 4 -19 -14
-51 -33 -70 -44 -19 -10 -37 -22 -40 -26 -3 -3 -43 -30 -90 -59 -47 -29 -100
-64 -119 -77 -94 -66 -64 31 48 154 58 65 78 106 61 127 -7 9 -19 15 -25 13
-17 -4 -112 -131 -129 -172 -7 -17 -30 -45 -50 -61 -20 -17 -49 -40 -64 -53
-15 -12 -35 -25 -44 -28 -10 -3 -18 -10 -18 -15 0 -5 -7 -9 -15 -9 -7 0 -18
-6 -22 -13 -13 -22 -124 -69 -167 -70 -39 -2 -41 0 -39 25 1 20 -4 28 -23 32
-35 9 -28 44 14 72 19 13 28 25 22 29 -11 7 -30 -4 -79 -43 -20 -16 -24 -27
-23 -73 2 -64 -2 -70 -51 -87 -65 -23 -90 -5 -130 91 -29 70 -37 82 -58 82
-20 0 -26 -8 -38 -45 -16 -53 -16 -53 -61 -114 -33 -45 -87 -86 -115 -86 -7 0
-23 12 -35 27 -18 23 -21 38 -18 88 l3 60 -30 0 c-23 0 -30 -5 -31 -20 -4 -61
-100 -185 -143 -185 -28 0 -44 35 -37 79 7 45 -4 64 -35 59 -17 -2 -25 -11
-28 -28 -1 -14 -11 -36 -21 -50 -9 -14 -20 -35 -24 -47 -10 -31 -82 -93 -109
-93 -18 0 -25 8 -34 42 -6 23 -8 47 -5 53 4 5 12 26 19 45 11 30 10 37 -4 47
-29 22 -58 10 -61 -27 -4 -40 -52 -104 -93 -125 -39 -21 -42 -19 -34 16 10 45
-16 69 -76 69 -26 0 -51 -4 -54 -10 -3 -5 -13 -10 -21 -10 -12 0 -12 4 -4 20
20 37 -26 23 -58 -17 -40 -51 -52 -77 -52 -108 0 -14 -5 -35 -11 -46 -8 -16
-6 -27 11 -53 32 -46 60 -56 130 -46 71 10 120 41 120 75 0 19 10 28 45 44 25
11 45 24 45 29 0 24 32 19 64 -8 24 -22 44 -30 70 -30 36 0 45 5 125 77 34 29
38 30 62 17 52 -27 89 -27 124 1 19 14 36 25 40 25 3 0 17 12 30 27 l23 28 26
-28 c21 -22 33 -27 74 -27 32 0 54 5 62 15 7 8 18 15 26 15 7 0 16 9 19 20 3
11 12 20 18 20 13 0 34 22 53 56 19 33 41 28 68 -15 15 -22 37 -43 50 -47 35
-8 134 13 163 36 21 16 39 20 107 19 76 -1 85 1 160 40 51 26 83 38 89 32 19
-19 -15 -69 -76 -118 -96 -74 -317 -264 -317 -272 0 -3 -13 -21 -29 -38 -42
-46 -71 -89 -71 -105 0 -7 -13 -28 -29 -45 -15 -17 -31 -42 -34 -55 -21 -86
-29 -114 -37 -124 -14 -16 -1 -24 39 -23 32 0 42 8 86 61 28 33 57 68 66 78 8
9 38 48 65 86 27 38 57 78 66 89 9 11 35 40 56 65 21 25 41 52 44 60 3 8 37
53 75 100 38 47 78 99 90 116 12 17 59 60 104 95 45 35 93 74 108 86 14 13 31
23 37 23 6 0 19 9 29 20 10 11 27 22 39 26 11 4 33 16 47 27 36 26 52 15 44
-32 -9 -56 11 -75 76 -75 44 0 62 6 99 32 83 57 100 77 108 123 7 40 10 44 38
47 43 4 72 -29 55 -62 -17 -31 -11 -57 15 -67 36 -13 64 22 64 79 0 46 3 50
73 118 133 130 166 154 208 154 32 0 59 14 48 24 -11 9 -77 14 -94 6z m-467
-236 c18 -5 22 -13 22 -43 0 -30 -7 -44 -37 -72 -68 -64 -110 -91 -133 -84
-42 13 -17 78 60 156 51 52 52 52 88 43z m-2214 -470 c11 -28 6 -71 -9 -84
-11 -9 -14 -23 -9 -45 5 -26 1 -34 -20 -48 -38 -26 -82 -22 -102 8 -18 28 -14
99 8 134 25 41 120 66 132 35z m1436 -48 c0 -6 -19 -32 -42 -57 -60 -63 -88
-98 -88 -109 0 -5 -29 -39 -64 -75 -36 -36 -79 -85 -97 -110 -18 -25 -39 -45
-46 -45 -18 0 -30 33 -15 38 7 2 12 12 12 22 0 10 5 22 10 25 13 8 90 112 90
121 0 15 65 86 106 116 24 17 44 36 44 42 0 13 72 56 83 49 4 -2 7 -10 7 -17z"/>
</g>
</svg>
